<?xml version="1.0" encoding="UTF-8" standalone="no"?>
<!-- Generator: Gravit.io -->
<svg xmlns="http://www.w3.org/2000/svg" xmlns:xlink="http://www.w3.org/1999/xlink" style="isolation:isolate" viewBox="0 0 512 512" width="512pt" height="512pt"><defs><clipPath id="_clipPath_uhhgdy3ft7RkEwJtqCynxEup0hKbHZbF"><rect width="512" height="512"/></clipPath></defs><g clip-path="url(#_clipPath_uhhgdy3ft7RkEwJtqCynxEup0hKbHZbF)"><rect width="512" height="512" style="fill:rgb(0,0,0)" fill-opacity="0"/><g><path d=" M 440.632 447 L 71.368 447 C 67.853 447 65 444.147 65 440.632 L 65 71.368 C 65 67.853 67.853 65 71.368 65 L 440.632 65 C 444.147 65 447 67.853 447 71.368 L 447 440.632 C 447 444.147 444.147 447 440.632 447 L 440.632 447 Z  M 77.733 434.267 L 434.267 434.267 L 434.267 77.733 L 77.733 77.733 L 77.733 434.267 Z " fill="rgb(0,0,0)"/><path d=" M 383.334 166.868 L 236.899 166.868 C 233.387 166.868 230.534 164.015 230.534 160.5 L 230.534 135.034 C 230.534 131.519 233.387 128.666 236.899 128.666 L 383.334 128.666 C 386.849 128.666 389.699 131.519 389.699 135.034 L 389.699 160.5 C 389.699 164.015 386.849 166.868 383.334 166.868 Z  M 243.267 154.132 L 376.966 154.132 L 376.966 141.399 L 243.267 141.399 L 243.267 154.132 Z " fill="rgb(0,0,0)"/><path d=" M 383.334 275.101 L 236.899 275.101 C 233.387 275.101 230.534 272.248 230.534 268.733 L 230.534 243.267 C 230.534 239.752 233.387 236.899 236.899 236.899 L 383.334 236.899 C 386.849 236.899 389.699 239.752 389.699 243.267 L 389.699 268.733 C 389.699 272.248 386.849 275.101 383.334 275.101 L 383.334 275.101 Z  M 243.267 262.368 L 376.966 262.368 L 376.966 249.632 L 243.267 249.632 L 243.267 262.368 Z " fill="rgb(0,0,0)"/><path d=" M 383.334 383.334 L 236.899 383.334 C 233.387 383.334 230.534 380.481 230.534 376.966 L 230.534 351.5 C 230.534 347.985 233.387 345.132 236.899 345.132 L 383.334 345.132 C 386.849 345.132 389.699 347.985 389.699 351.5 L 389.699 376.966 C 389.699 380.481 386.849 383.334 383.334 383.334 Z  M 243.267 370.601 L 376.966 370.601 L 376.966 357.868 L 243.267 357.868 L 243.267 370.601 Z " fill="rgb(0,0,0)"/><path d=" M 147.767 179.601 C 146.138 179.601 144.506 178.977 143.264 177.736 L 124.166 158.635 C 121.677 156.146 121.677 152.121 124.166 149.632 C 126.649 147.143 130.685 147.143 133.168 149.632 L 152.267 168.733 C 154.759 171.222 154.759 175.244 152.267 177.736 C 151.025 178.977 149.396 179.601 147.767 179.601 Z " fill="rgb(0,0,0)"/><path d=" M 147.761 179.601 C 146.482 179.601 145.188 179.211 144.063 178.415 C 141.204 176.372 140.539 172.394 142.585 169.535 L 174.416 124.967 C 176.462 122.102 180.441 121.452 183.3 123.484 C 186.159 125.527 186.82 129.508 184.777 132.367 L 152.943 176.932 C 151.707 178.671 149.746 179.601 147.761 179.601 Z " fill="rgb(0,0,0)"/><path d=" M 147.767 287.834 C 146.138 287.834 144.506 287.211 143.264 285.969 L 124.166 266.868 C 121.677 264.379 121.677 260.354 124.166 257.865 C 126.649 255.376 130.685 255.376 133.168 257.865 L 152.267 276.966 C 154.759 279.455 154.759 283.477 152.267 285.969 C 151.025 287.211 149.396 287.834 147.767 287.834 Z " fill="rgb(0,0,0)"/><path d=" M 147.761 287.834 C 146.482 287.834 145.188 287.444 144.063 286.648 C 141.204 284.605 140.539 280.627 142.585 277.768 L 174.416 233.2 C 176.462 230.336 180.441 229.68 183.3 231.717 C 186.159 233.76 186.82 237.741 184.777 240.6 L 152.943 285.165 C 151.707 286.905 149.746 287.834 147.761 287.834 Z " fill="rgb(0,0,0)"/><path d=" M 147.767 396.067 C 146.138 396.067 144.506 395.444 143.264 394.202 L 124.166 375.101 C 121.677 372.612 121.677 368.587 124.166 366.098 C 126.649 363.609 130.685 363.609 133.168 366.098 L 152.267 385.2 C 154.759 387.688 154.759 391.713 152.267 394.202 C 151.025 395.444 149.396 396.067 147.767 396.067 Z " fill="rgb(0,0,0)"/><path d=" M 147.761 396.067 C 146.482 396.067 145.188 395.677 144.063 394.881 C 141.204 392.838 140.539 388.86 142.585 386.001 L 174.416 341.434 C 176.462 338.569 180.441 337.913 183.3 339.95 C 186.159 341.993 186.82 345.974 184.777 348.833 L 152.943 393.398 C 151.707 395.138 149.746 396.067 147.761 396.067 Z " fill="rgb(0,0,0)"/></g></g></svg>